<svg viewBox="5 -2 280 286" xmlns="http://www.w3.org/2000/svg">
  <metadata id="metadata8">image/svg+xml</metadata>
  <g transform="matrix(1.3333333,0,0,-1.3333333,0,1056) " id="g10">
    <path id="path44" d="m70.21289,773.2876l-60.35742,-107.62744l47.27051,-55.54932l32.31543,145.81738l-19.22852,17.35938z" fill-rule="nonzero" fill="#ffffff"/>
    <path id="path46" d="m57.05176,785.34131l9.59765,-8.61475l-14.47949,-25.83496l-9.99707,19.76026l14.87891,14.68945z" fill-rule="nonzero" fill="#ffffff"/>
    <path id="path48" d="m53.64746,788.39648l-45.37402,-44.69043l15.8125,40.25l29.56152,4.44043z" fill-rule="nonzero" fill="#ffffff"/>
    <path id="path50" d="m78.65918,684.27539l-0.0547,-0.25635l-16.64355,-75.10351l140.375,21.5l-75,79.45849" fill-rule="nonzero" fill="#ffffff"/>
    <path id="path52" d="m66.22266,604.98193l83.71386,12.90967l-24.96679,-34.00879l-58.74707,21.09912z" fill-rule="nonzero" fill="#ffffff"/>
    <path id="path54" d="m148.60547,693.66846l31.50976,-33.42383l27.6836,38.46289l-59.19336,-5.03906z" fill-rule="nonzero" fill="#ffffff"/>
    <path id="path56" d="m133.01758,710.07178l12.59277,-13.38477l6.99903,0.57862l-19.5918,12.80615z" fill-rule="nonzero" fill="#ffffff"/>
    <path id="path58" d="m191.41016,668.78857l-8.30664,-11.52734l26.04492,-0.84619l-17.73828,12.37353z" fill-rule="nonzero" fill="#ffffff"/>
  </g>
</svg>